<svg xmlns="http://www.w3.org/2000/svg" xmlns:xlink="http://www.w3.org/1999/xlink" viewBox="0 0 1920 1080"><defs><style>.cls-1,.cls-29{fill:none;}.cls-2{isolation:isolate;}.cls-3{fill:url(#linear-gradient);}.cls-4{fill:url(#linear-gradient-2);}.cls-5{fill:url(#linear-gradient-3);}.cls-6{fill:url(#linear-gradient-4);}.cls-7{fill:url(#linear-gradient-5);}.cls-8{fill:url(#linear-gradient-6);}.cls-9{fill:url(#linear-gradient-7);}.cls-10{fill:url(#linear-gradient-8);}.cls-11{fill:#2664e4;}.cls-12{clip-path:url(#clip-path);}.cls-13{fill:#39baf9;}.cls-14{fill:#1a9cf1;}.cls-15{fill:#ffcf4d;}.cls-16{fill:#f9960d;}.cls-17{font-size:51.62px;}.cls-17,.cls-21,.cls-22,.cls-24,.cls-40{fill:#fff;}.cls-17,.cls-21,.cls-23,.cls-24,.cls-26{font-family:OpenSans-Bold, Open Sans;font-weight:700;}.cls-18{fill:url(#linear-gradient-9);}.cls-19{fill:url(#linear-gradient-10);}.cls-20{fill:url(#linear-gradient-11);}.cls-21,.cls-23,.cls-27{font-size:13.83px;}.cls-22{opacity:0.53;}.cls-23,.cls-25,.cls-26,.cls-27{fill:#1f398e;}.cls-24,.cls-26{font-size:19.92px;}.cls-27{font-family:OpenSans-SemiBoldItalic, Open Sans;font-weight:600;font-style:italic;}.cls-28{opacity:0.4;}.cls-29{stroke:#1f398e;stroke-miterlimit:10;stroke-width:2.61px;}.cls-30{fill:#ffe590;}.cls-31{clip-path:url(#clip-path-2);}.cls-32{clip-path:url(#clip-path-3);}.cls-33{clip-path:url(#clip-path-4);}.cls-34{clip-path:url(#clip-path-5);}.cls-35{fill:#039;}.cls-36{fill:#0f4b6a;}.cls-37{fill:url(#linear-gradient-12);}.cls-38{fill:#faf6f0;}.cls-39{fill:#064d3a;}.cls-41{opacity:0.3;}.cls-42{fill:#ffd7bf;}.cls-43{fill:#1b42a7;}.cls-44{fill:#162b35;opacity:0.5;mix-blend-mode:multiply;}.cls-45{fill:#e6e6e6;}.cls-46{fill:#ffb294;}.cls-47{fill:#1e3a47;}</style><linearGradient id="linear-gradient" y1="540" x2="1920" y2="540" gradientUnits="userSpaceOnUse"><stop offset="0" stop-color="#1f398e"/><stop offset="0.2" stop-color="#203f99"/><stop offset="0.56" stop-color="#224db7"/><stop offset="1" stop-color="#2664e4"/></linearGradient><linearGradient id="linear-gradient-2" x1="958.61" y1="1080" x2="958.61" y2="-2.11" gradientUnits="userSpaceOnUse"><stop offset="0" stop-color="#1b42a7"/><stop offset="0.27" stop-color="#2e78b5"/><stop offset="0.62" stop-color="#45b5c5"/><stop offset="0.87" stop-color="#53dbcf"/><stop offset="1" stop-color="#58ead3"/></linearGradient><linearGradient id="linear-gradient-3" x1="334.77" y1="696.52" x2="491.34" y2="732.31" gradientUnits="userSpaceOnUse"><stop offset="0.77" stop-color="#1f398e"/><stop offset="0.81" stop-color="#203d97"/><stop offset="0.88" stop-color="#2249af"/><stop offset="0.97" stop-color="#255dd5"/><stop offset="1" stop-color="#2664e4"/></linearGradient><linearGradient id="linear-gradient-4" x1="1554.19" y1="675.09" x2="1312.91" y2="840.62" gradientUnits="userSpaceOnUse"><stop offset="0" stop-color="#1f398e"/><stop offset="0.19" stop-color="#203d97"/><stop offset="0.49" stop-color="#2249af"/><stop offset="0.87" stop-color="#255dd5"/><stop offset="1" stop-color="#2664e4"/></linearGradient><linearGradient id="linear-gradient-5" x1="1562.47" y1="714.29" x2="1144.64" y2="920.76" xlink:href="#linear-gradient-4"/><linearGradient id="linear-gradient-6" x1="402.08" y1="721.45" x2="1201.12" y2="1155.07" xlink:href="#linear-gradient"/><linearGradient id="linear-gradient-7" x1="856.64" y1="968.69" x2="954.37" y2="1000.21" xlink:href="#linear-gradient-4"/><linearGradient id="linear-gradient-8" x1="415.7" y1="192.42" x2="2129.15" y2="1734.08" gradientUnits="userSpaceOnUse"><stop offset="0" stop-color="#1b42a7"/><stop offset="0.12" stop-color="#1f4daa"/><stop offset="0.33" stop-color="#2a6bb2"/><stop offset="0.61" stop-color="#3c9cbe"/><stop offset="0.94" stop-color="#54ded0"/><stop offset="1" stop-color="#58ead3"/></linearGradient><clipPath id="clip-path"><path class="cls-1" d="M640.34,687.08l.48-169.39c-.13,47.64,31.31,95.36,94.27,131.71l-.48,169.38C671.65,782.43,640.21,734.72,640.34,687.08Z"/></clipPath><linearGradient id="linear-gradient-9" x1="-825.39" y1="-2037.36" x2="795.53" y2="-578.95" gradientTransform="matrix(0.87, -0.5, 0, 1.15, 627.66, 2083.55)" xlink:href="#linear-gradient"/><linearGradient id="linear-gradient-10" x1="392.37" y1="750.08" x2="353.56" y2="437.57" xlink:href="#linear-gradient"/><linearGradient id="linear-gradient-11" x1="320.45" y1="154.17" x2="371.51" y2="235.88" xlink:href="#linear-gradient-4"/><clipPath id="clip-path-2"><polygon class="cls-1" points="1410.44 324.47 1434.73 310.35 1521.56 360.49 1497.28 374.61 1410.44 324.47"/></clipPath><clipPath id="clip-path-3"><polygon class="cls-1" points="1268.08 392.6 1282.91 383.98 1425.19 466.13 1410.36 474.75 1268.08 392.6"/></clipPath><clipPath id="clip-path-4"><polygon class="cls-1" points="1051.98 199.54 1051.92 177.82 1102.39 148.68 1102.45 170.4 1051.98 199.54"/></clipPath><clipPath id="clip-path-5"><polygon class="cls-1" points="1184.49 121.68 1184.43 99.97 1234.9 70.83 1234.96 92.54 1184.49 121.68"/></clipPath><linearGradient id="linear-gradient-12" x1="1657.08" y1="-50.68" x2="1779.63" y2="816.38" gradientUnits="userSpaceOnUse"><stop offset="0" stop-color="#58ead3"/><stop offset="0.22" stop-color="#53e7d0"/><stop offset="0.47" stop-color="#46ddc7"/><stop offset="0.74" stop-color="#2fcdb7"/><stop offset="1" stop-color="#11b7a3"/></linearGradient></defs><g class="cls-2"><g id="Margin"><rect class="cls-3" width="1920" height="1080"/><polygon class="cls-4" points="-2.77 667.68 1153.29 -2.11 1920 0 1920 1080 0 1080 -2.77 667.68"/><path class="cls-5" d="M418.78,720.43l.05-38.49c0,12.58,8.27,25.18,24.9,34.78l-.05,38.49C427.05,745.61,418.74,733,418.78,720.43Z"/><path class="cls-6" d="M1501.22,682.41l0,40.33c0,12.42-8.2,24.82-24.51,34.3l0-40.33C1493,707.24,1501.18,694.83,1501.22,682.41Z"/><polygon class="cls-7" points="1476.71 716.71 1476.66 757.04 1021.3 1021.67 1021.35 981.34 1476.71 716.71"/><polygon class="cls-8" points="902.07 981.34 902.02 1020.09 443.68 755.47 443.73 716.72 902.07 981.34"/><path class="cls-9" d="M1021.35,981.34l-.05,40.33c-32.83,19.08-86.24,19.08-119.28,0l.05-40.33C935.12,1000.42,988.52,1000.42,1021.35,981.34Z"/><path class="cls-10" d="M1476.32,647.62c33,19.08,33.22,50,.39,69.09L1021.35,981.34c-32.83,19.08-86.23,19.08-119.28,0L443.73,716.72c-33.05-19.08-33.22-50-.38-69.09L898.71,383c32.82-19.08,86.23-19.08,119.27,0Z"/><g class="cls-2"><polygon class="cls-11" points="1185.24 387.8 1184.76 557.19 734.61 818.78 735.09 649.4 1185.24 387.8"/><g class="cls-2"><g class="cls-12"><path class="cls-13" d="M735.09,649.4l-.48,169.38c-63-36.35-94.4-84.06-94.27-131.7l.48-169.39c-.13,47.64,31.31,95.36,94.27,131.71"/></g></g><path class="cls-14" d="M1185.24,387.8,735.09,649.4C610,577.16,609.32,460,733.62,387.8S1060.12,315.57,1185.24,387.8Z"/></g><g class="cls-2"><path class="cls-15" d="M1279.32,604.24l-.24,84.7c-.13,47-31,94-92.8,129.88-124.3,72.24-326.5,72.24-451.62,0l.24-84.69c125.12,72.24,327.32,72.24,451.62,0C1248.28,698.24,1279.19,651.28,1279.32,604.24Z"/><path class="cls-16" d="M1185.05,472.54c125.12,72.23,125.78,189.35,1.47,261.59s-326.5,72.24-451.62,0Z"/></g><text class="cls-17" transform="matrix(0.89, 0.51, -0.87, 0.5, 1007.03, 630.42)">50%</text><text class="cls-17" transform="matrix(0.89, 0.51, -0.87, 0.5, 792.27, 422.98)">50%</text><polygon class="cls-18" points="657.86 21.45 657.86 475.66 59.73 821 59.73 366.78 657.86 21.45"/><path class="cls-19" d="M657.86,138.45V475.66L59.73,821V630.45S116.88,579.83,162,604.31,356.7,600,458.16,392.2C529.1,246.91,594,183.07,657.86,138.45Z"/><polygon class="cls-20" points="657.86 64.26 59.73 409.6 59.73 366.78 657.86 21.45 657.86 64.26"/><text class="cls-21" transform="matrix(0.89, -0.51, 0, 1, 297.81, 341.9)">Cost: $</text><text class="cls-21" transform="matrix(0.89, -0.51, 0, 1, 272.19, 388.26)">Revenue: $</text><polygon class="cls-22" points="428.01 273.8 344.04 322.29 344.04 296.18 428.01 247.7 428.01 273.8"/><polygon class="cls-22" points="428.01 306.44 344.04 354.92 344.04 328.81 428.01 280.33 428.01 306.44"/><text class="cls-23" transform="matrix(0.89, -0.51, 0, 1, 347.98, 311.87)">125.00</text><text class="cls-23" transform="matrix(0.89, -0.51, 0, 1, 349.76, 343.47)">250.00</text><text class="cls-24" transform="matrix(0.89, -0.51, 0, 1, 96.03, 373.77)">MARGIN CALCULATOR</text><polygon class="cls-25" points="87.8 380.46 72.43 389.34 72.43 371.72 87.8 362.84 87.8 380.46"/><polygon class="cls-25" points="599.85 84.83 584.48 93.71 584.48 76.09 599.85 67.21 599.85 84.83"/><polygon class="cls-25" points="622.08 72 606.71 80.88 606.71 63.25 622.08 54.38 622.08 72"/><polygon class="cls-25" points="644.31 59.16 628.93 68.04 628.93 50.42 644.31 41.54 644.31 59.16"/><path class="cls-25" d="M444,352.42,273.62,450.77c-4.76,2.75-8.62-.17-8.62-6.52V431.67c0-6.35,3.86-13.73,8.62-16.47L444,316.85c4.76-2.75,8.62.17,8.62,6.52V336C452.58,342.3,448.72,349.68,444,352.42Z"/><text class="cls-24" transform="matrix(0.89, -0.51, 0, 1, 312.1, 417.67)">CALCULATE</text><polygon class="cls-22" points="515.84 538.63 207.09 716.89 207.09 508.81 515.84 330.55 515.84 538.63"/><text class="cls-26" transform="matrix(0.89, -0.51, 0, 1, 266.94, 536.68)">Gross Margin:<tspan x="53.15" y="47.8">Markup:</tspan><tspan x="13.97" y="95.6">Gross Profit:</tspan></text><text class="cls-26" transform="matrix(0.89, -0.51, 0, 1, 431.65, 441.59)">50%<tspan x="-11.37" y="47.8">100%</tspan><tspan x="-33.21" y="95.6">$125.00</tspan></text><text class="cls-27" transform="matrix(0.89, -0.51, 0, 1, 218.67, 523.43)">answer :</text><polygon class="cls-28" points="60.93 821.59 47.65 813.87 46.36 359.05 59.64 366.76 60.93 821.59"/><polygon class="cls-28" points="59.64 366.76 46.36 359.05 643.87 14.07 657.14 21.79 59.64 366.76"/><polygon class="cls-29" points="1200.12 287.76 1112.04 338.94 1023.39 287.76 1111.47 236.57 1200.12 287.76"/><polygon class="cls-29" points="1330.02 209.29 1241.94 260.47 1153.29 209.29 1241.37 158.1 1330.02 209.29"/><polygon class="cls-29" points="1566.14 367.36 1566.14 408.79 1504.49 403.18 1370.2 325 1431.85 289.17 1566.14 367.36"/><polygon class="cls-29" points="1434.25 444.96 1434.25 486.39 1372.61 480.78 1238.32 402.59 1299.96 366.77 1434.25 444.96"/><line class="cls-29" x1="1282.64" y1="238.36" x2="1402.07" y2="308.94"/><line class="cls-29" x1="1152.99" y1="316.58" x2="1268.51" y2="384.85"/><polygon class="cls-14" points="1174.13 228.32 1112.48 264.15 1050.44 228.33 1112.08 192.5 1174.13 228.32"/><polygon class="cls-11" points="1174.13 228.32 1174.03 291.2 1112.38 327.03 1112.48 264.15 1174.13 228.32"/><polygon class="cls-13" points="1112.48 264.15 1112.38 327.03 1050.33 291.2 1050.44 228.33 1112.48 264.15"/><polygon class="cls-16" points="1306.33 150.93 1244.68 186.75 1182.64 150.93 1244.28 115.1 1306.33 150.93"/><polygon class="cls-30" points="1306.33 150.93 1306.23 213.8 1244.58 249.63 1244.68 186.75 1306.33 150.93"/><polygon class="cls-15" points="1244.68 186.75 1244.58 249.63 1182.53 213.81 1182.64 150.93 1244.68 186.75"/><g class="cls-2"><g class="cls-31"><path class="cls-25" d="M1445.84,316.8a20.66,20.66,0,0,0-7.4-2.55,23.15,23.15,0,0,0-8.12.22,25.62,25.62,0,0,0-7.79,3q-5.85,3.4-6.22,6.8c-.25,2.26,1.34,4.39,4.8,6.39a28.77,28.77,0,0,0,7.74,3.07l4.2-2.44a32.66,32.66,0,0,1-7.3-2.78q-6-3.44,1.93-8a18.23,18.23,0,0,1,7.47-2.53,10.85,10.85,0,0,1,6.53,1.3,8.26,8.26,0,0,1,2.18,1.81,19.12,19.12,0,0,1,1.58,2.18l5.69-1.42a14.65,14.65,0,0,0-5.29-5"/><path class="cls-25" d="M1447.14,340.8q-3-1.74-2.52-3.78c.34-1.35,1.82-2.8,4.45-4.33a17.94,17.94,0,0,1,7.49-2.58,11,11,0,0,1,6.54,1.45q6,3.46-2,8.09t-14,1.15m20.12-11.66a21.78,21.78,0,0,0-11.51-3.05,24.31,24.31,0,0,0-11.93,3.54q-5.89,3.42-6.11,6.93t5.23,6.68a21.63,21.63,0,0,0,11.53,3,24.62,24.62,0,0,0,11.93-3.54q5.88-3.42,6.11-6.91t-5.25-6.65"/><path class="cls-25" d="M1494.78,345.06a24.66,24.66,0,0,0-12.32-3.41,23.67,23.67,0,0,0-12.19,3.28q-5.88,3.42-6.18,6.88t5.07,6.56a40.64,40.64,0,0,0,4.43,2.21,50.46,50.46,0,0,0,5.36,1.89l12.23-7.11-9.42-5.44-4.17,2.42,4.51,2.6-4.93,2.86a25.62,25.62,0,0,1-3.52-1.66c-2-1.17-2.88-2.44-2.58-3.84s1.72-2.83,4.28-4.32a16.35,16.35,0,0,1,7.82-2.27,13.68,13.68,0,0,1,7.41,1.75,10.77,10.77,0,0,1,4.12,3.88l5.68-1.36a17.13,17.13,0,0,0-5.6-4.92"/><path class="cls-25" d="M1514.37,356.37a17,17,0,0,0-7.7-2.37,12.65,12.65,0,0,0-7.06,1.63,5.65,5.65,0,0,0-2.25,2.06,3.67,3.67,0,0,0-.44,2.27,7.84,7.84,0,0,0,1.32,3,19.39,19.39,0,0,1,1.47,2.71,2.1,2.1,0,0,1,.11,1.26,1.67,1.67,0,0,1-.85.95,4.55,4.55,0,0,1-2.75.58,7.94,7.94,0,0,1-3.18-1.11,12.84,12.84,0,0,1-2.61-2,21,21,0,0,1-2.57-3.22l-4.65,2.7a14.38,14.38,0,0,0,5.31,4.71,18.91,18.91,0,0,0,8.28,2.65,12.65,12.65,0,0,0,7.35-1.59,4.92,4.92,0,0,0,2.66-3c.24-1.09-.23-2.58-1.39-4.48a19.26,19.26,0,0,1-1.54-2.8,1.67,1.67,0,0,1,0-1.12,1.84,1.84,0,0,1,.84-.85,4.54,4.54,0,0,1,2.5-.56,6.17,6.17,0,0,1,2.85.88,10.54,10.54,0,0,1,2.14,1.59,18.94,18.94,0,0,1,2.06,2.44l5.52-1.32a19.31,19.31,0,0,0-2.29-2.75,16.3,16.3,0,0,0-3.1-2.29"/></g></g><g class="cls-2"><g class="cls-32"><path class="cls-25" d="M1290.46,388.36a15.06,15.06,0,0,0-7.52-2.08,14.33,14.33,0,0,0-7.44,2q-3.59,2.09-3.78,4.2c-.12,1.41.91,2.74,3.1,4a27.36,27.36,0,0,0,2.71,1.35,29.61,29.61,0,0,0,3.26,1.15l7.47-4.34-5.75-3.32L1280,392.8l2.75,1.59-3,1.75a15.93,15.93,0,0,1-2.15-1c-1.23-.71-1.76-1.49-1.58-2.34s1.06-1.73,2.62-2.64a9.94,9.94,0,0,1,4.78-1.38,8.26,8.26,0,0,1,4.52,1.07,6.68,6.68,0,0,1,2.51,2.36l3.47-.83a10.46,10.46,0,0,0-3.42-3"/><path class="cls-25" d="M1294.71,398.46l3.88-2.26.94.54a4.06,4.06,0,0,1,1.76,1.52c.18.44-.06.86-.75,1.26a3.55,3.55,0,0,1-2.2.48,6.77,6.77,0,0,1-2.64-1l-1-.58m7.54-3L1298,393l-14.41,8.37,3.08,1.78,5.52-3.21,1.63.94-2,5.21,3.41,2q.42-1.39,2-6.11a11.07,11.07,0,0,0,3.54.25,7.3,7.3,0,0,0,3-.91c1.44-.84,2.06-1.74,1.82-2.7s-1.33-2-3.3-3.15"/><path class="cls-25" d="M1305.65,411.32c-1.22-.71-1.73-1.47-1.54-2.3s1.11-1.71,2.72-2.65a11.06,11.06,0,0,1,4.57-1.58,6.77,6.77,0,0,1,4,.89q3.66,2.11-1.21,4.94t-8.54.7m12.29-7.12a13.45,13.45,0,0,0-7-1.86,15,15,0,0,0-7.28,2.16c-2.4,1.4-3.64,2.81-3.74,4.24s1,2.79,3.2,4.07a13.23,13.23,0,0,0,7,1.84,15.09,15.09,0,0,0,7.29-2.17c2.38-1.38,3.62-2.79,3.71-4.21s-1-2.78-3.19-4.07"/><path class="cls-25" d="M1332,412.34a10.45,10.45,0,0,0-4.7-1.45,7.73,7.73,0,0,0-4.31,1,3.47,3.47,0,0,0-1.37,1.26,2.19,2.19,0,0,0-.28,1.38,5,5,0,0,0,.8,1.85A11.12,11.12,0,0,1,1323,418a1.32,1.32,0,0,1,.06.77,1,1,0,0,1-.52.58,2.73,2.73,0,0,1-1.67.35,5,5,0,0,1-1.94-.67,8.28,8.28,0,0,1-1.59-1.23,13.13,13.13,0,0,1-1.57-2l-2.84,1.65a8.79,8.79,0,0,0,3.24,2.87,11.42,11.42,0,0,0,5,1.62,7.72,7.72,0,0,0,4.5-1,3,3,0,0,0,1.61-1.82,4.07,4.07,0,0,0-.84-2.73,11.6,11.6,0,0,1-.94-1.71,1,1,0,0,1,0-.69,1.14,1.14,0,0,1,.51-.52,2.8,2.8,0,0,1,1.52-.34,3.82,3.82,0,0,1,1.75.54,6.77,6.77,0,0,1,1.3,1,10.42,10.42,0,0,1,1.26,1.49l3.37-.8a11.55,11.55,0,0,0-1.4-1.68,9.66,9.66,0,0,0-1.89-1.4"/><path class="cls-25" d="M1343.17,418.8a10.29,10.29,0,0,0-4.69-1.45,7.71,7.71,0,0,0-4.31,1,3.43,3.43,0,0,0-1.38,1.26,2.25,2.25,0,0,0-.27,1.38,4.87,4.87,0,0,0,.8,1.85,11.12,11.12,0,0,1,.91,1.65,1.32,1.32,0,0,1,.06.77,1.05,1.05,0,0,1-.52.58,2.74,2.74,0,0,1-1.68.35,4.9,4.9,0,0,1-1.93-.67,8,8,0,0,1-1.6-1.24,12.5,12.5,0,0,1-1.57-2l-2.83,1.65a8.74,8.74,0,0,0,3.23,2.87,11.59,11.59,0,0,0,5.06,1.62,7.75,7.75,0,0,0,4.48-1,3,3,0,0,0,1.63-1.82,4,4,0,0,0-.85-2.73,12.15,12.15,0,0,1-.94-1.71,1,1,0,0,1,0-.69,1.05,1.05,0,0,1,.51-.52,2.78,2.78,0,0,1,1.52-.34,3.79,3.79,0,0,1,1.74.54,6.45,6.45,0,0,1,1.31,1,10.44,10.44,0,0,1,1.25,1.49l3.37-.8a11,11,0,0,0-1.39-1.68,9.75,9.75,0,0,0-1.9-1.4"/><path class="cls-25" d="M1351.54,431.72l4.27-2.48,1.4.81c.84.48,1.29.94,1.34,1.36s-.28.85-1,1.26a4.08,4.08,0,0,1-2.33.54,6.3,6.3,0,0,1-2.68-.9l-1-.59m8.34-3-4.64-2.67-14.4,8.37,3.07,1.77,5.13-3,1.31.75a11.8,11.8,0,0,0,5.4,1.69,8.94,8.94,0,0,0,5-1.22c1.49-.87,2.15-1.78,2-2.75s-1.13-1.95-2.88-3"/><path class="cls-25" d="M1364.68,438.86l3.88-2.26.94.54a4,4,0,0,1,1.76,1.52c.18.44-.06.86-.75,1.25a3.5,3.5,0,0,1-2.21.48,6.48,6.48,0,0,1-2.63-1l-1-.57m7.54-3.05-4.22-2.44-14.41,8.37,3.07,1.78,5.53-3.21,1.63.94-2.06,5.21,3.41,2q.43-1.4,2-6.11a11.35,11.35,0,0,0,3.54.25,7.5,7.5,0,0,0,3-.91c1.44-.84,2-1.75,1.82-2.7s-1.33-2-3.3-3.15"/><path class="cls-25" d="M1375.62,451.72c-1.22-.71-1.74-1.47-1.54-2.3s1.11-1.71,2.72-2.65a11,11,0,0,1,4.57-1.58,6.77,6.77,0,0,1,4,.89q3.66,2.12-1.21,4.94t-8.54.7m12.29-7.12a13.45,13.45,0,0,0-7-1.86,14.93,14.93,0,0,0-7.29,2.16c-2.39,1.39-3.63,2.81-3.73,4.24s1,2.79,3.19,4.07a13.36,13.36,0,0,0,7,1.84,15.06,15.06,0,0,0,7.28-2.17c2.38-1.39,3.63-2.79,3.72-4.21s-1-2.78-3.19-4.07"/><polyline class="cls-25" points="1405.88 455.24 1397.57 450.44 1383.16 458.81 1386.19 460.56 1391.88 457.25 1396.8 460.09 1399.29 458.64 1394.38 455.8 1398.09 453.65 1403.37 456.7 1405.88 455.24"/><polyline class="cls-25" points="1411.78 458.65 1408.71 456.88 1394.31 465.25 1397.38 467.02 1411.78 458.65"/><polyline class="cls-25" points="1424.96 466.26 1414.02 459.94 1411.47 461.42 1415.41 463.69 1403.55 470.58 1406.62 472.36 1418.48 465.47 1422.42 467.74 1424.96 466.26"/></g></g><g class="cls-2"><g class="cls-33"><path class="cls-25" d="M1062.93,171.8l-10,5.75-.66,11.14,1.55.07c.33-.31.77-.67,1.3-1.08a13.8,13.8,0,0,1,1.47-1q3.67-2.13,3.69,1.07c0,2.23-1.17,4-3.54,5.39a11,11,0,0,1-2.5,1.06,7.83,7.83,0,0,1-2.32.35l0,3.85a10.18,10.18,0,0,0,5-1.72,15.14,15.14,0,0,0,5.41-5,11.93,11.93,0,0,0,1.88-6.53c0-2-.53-3.26-1.59-3.8s-2.47-.29-4.23.73a14.14,14.14,0,0,0-1.9,1.29l-.44.36.33-4.33,6.55-3.78V171.8"/><path class="cls-25" d="M1072.72,184c-.92.53-1.57.35-2-.55a15.37,15.37,0,0,1-.6-5.22,22.36,22.36,0,0,1,.58-5.92,4.52,4.52,0,0,1,2-2.83c.9-.52,1.55-.33,2,.57a14.62,14.62,0,0,1,.63,5.22,22.16,22.16,0,0,1-.6,5.89,4.51,4.51,0,0,1-2,2.84m0-18.13a11.45,11.45,0,0,0-4.83,5.44,22.79,22.79,0,0,0-1.55,9.14c0,3.57.57,6,1.64,7.16s2.69,1.2,4.8,0a11.44,11.44,0,0,0,4.85-5.46,22.6,22.6,0,0,0,1.55-9.09q0-5.34-1.65-7.17t-4.81,0"/><path class="cls-25" d="M1098.07,169.92c-.42.24-.72.12-.91-.37a8,8,0,0,1-.29-2.58,12.08,12.08,0,0,1,.27-2.88,2.23,2.23,0,0,1,.91-1.42c.81-.46,1.21.51,1.22,2.92s-.39,3.87-1.2,4.33m0-10.25q-4.33,2.51-4.31,9.1c0,2.15.39,3.57,1.14,4.28s1.83.65,3.21-.14a8.06,8.06,0,0,0,3.27-3.56,12.81,12.81,0,0,0,1.1-5.62c0-2.11-.39-3.52-1.15-4.22s-1.84-.66-3.26.16m.16-8.22-3,1.74-10.12,27,3-1.74,10.13-27m-13,17.47c-.41.24-.72.11-.91-.38A8,8,0,0,1,1084,166a11.05,11.05,0,0,1,.28-2.88,2.17,2.17,0,0,1,.9-1.42c.81-.46,1.21.51,1.22,2.92s-.39,3.86-1.2,4.33m0-10.25q-4.34,2.51-4.31,9.1c0,2.15.38,3.58,1.14,4.28s1.83.66,3.2-.13a8,8,0,0,0,3.28-3.56,12.79,12.79,0,0,0,1.1-5.63c0-2.12-.39-3.53-1.15-4.23s-1.85-.64-3.26.17"/></g></g><g class="cls-2"><g class="cls-34"><path class="cls-25" d="M1195.44,94l-10,5.75-.66,11.14,1.55.06a16.47,16.47,0,0,1,1.3-1.08,14.07,14.07,0,0,1,1.47-1c2.45-1.42,3.68-1.06,3.68,1.06s-1.17,4-3.54,5.4a11.53,11.53,0,0,1-2.5,1.06,7.41,7.41,0,0,1-2.31.34v3.86a10.22,10.22,0,0,0,5-1.72,15.26,15.26,0,0,0,5.42-5,12,12,0,0,0,1.88-6.54c0-2-.53-3.26-1.59-3.8s-2.47-.29-4.25.74a12.73,12.73,0,0,0-1.88,1.29l-.44.35.32-4.33,6.55-3.78V94"/><path class="cls-25" d="M1205.23,106.11c-.91.54-1.57.35-2-.55a15.07,15.07,0,0,1-.6-5.22,21.94,21.94,0,0,1,.58-5.92,4.51,4.51,0,0,1,1.94-2.83c.9-.51,1.56-.33,2,.57a14.7,14.7,0,0,1,.63,5.22,21.77,21.77,0,0,1-.59,5.89,4.53,4.53,0,0,1-2,2.84m0-18.12a11.4,11.4,0,0,0-4.82,5.43,22.79,22.79,0,0,0-1.55,9.14c0,3.58.56,6,1.64,7.17s2.68,1.19,4.79,0a11.46,11.46,0,0,0,4.86-5.46,22.61,22.61,0,0,0,1.54-9.09q0-5.33-1.64-7.17t-4.82,0"/><path class="cls-25" d="M1230.59,92.06c-.42.25-.72.12-.92-.37a8.37,8.37,0,0,1-.28-2.57,11.53,11.53,0,0,1,.27-2.88,2.18,2.18,0,0,1,.91-1.42c.8-.46,1.21.51,1.22,2.91s-.4,3.87-1.2,4.33m0-10.24q-4.33,2.5-4.31,9.1c0,2.14.38,3.56,1.14,4.27s1.82.66,3.2-.14a8,8,0,0,0,3.27-3.56,12.73,12.73,0,0,0,1.11-5.61c0-2.12-.39-3.53-1.15-4.23s-1.85-.65-3.26.17m.15-8.22-3,1.74-10.13,27,3-1.74,10.12-27m-13,17.46c-.42.24-.72.12-.91-.37a8.25,8.25,0,0,1-.3-2.58,11.56,11.56,0,0,1,.28-2.88,2.18,2.18,0,0,1,.91-1.41c.8-.47,1.21.5,1.21,2.91s-.39,3.87-1.19,4.33m-.06-10.24c-2.88,1.66-4.32,4.7-4.31,9.09,0,2.16.39,3.58,1.15,4.29s1.82.66,3.2-.13a8.19,8.19,0,0,0,3.28-3.56,13,13,0,0,0,1.1-5.64c0-2.11-.39-3.52-1.15-4.23s-1.85-.64-3.27.18"/></g></g><path class="cls-35" d="M1848.49,182.71c-9.89-16.87-24.21-25.52-29.07-28.32L1654.68,59.28c-4.85-2.8-19.17-10.69-29.13-5.28a20.64,20.64,0,0,0-3.85,2.66l-15.83,11,7.52,52.71-1.23,433.14c-.05,18.59,1.59,31.1,11.83,48.57,9.84,16.77,24,25.41,29.07,28.32l162,93.52,16.8,17.15,15.09-10.27c10.31-5.6,12-16.19,12.06-34.77l1.31-464.72C1860.37,212.7,1858.74,200.18,1848.49,182.71Z"/><path class="cls-36" d="M1721.91,135.62a8.35,8.35,0,0,1,3.79,6.55c0,2.4-1.71,3.36-3.82,2.15a8.33,8.33,0,0,1-3.78-6.54C1718.1,135.37,1719.81,134.41,1721.91,135.62Z"/><path class="cls-11" d="M1832,193.82c9.61,16.39,11.28,28.07,11.23,46.57l-1.32,464.71c-.05,18.49-1.78,28.21-11.45,33.46-4.43,2.4-12.83,3.46-27.69-5.11L1638,638.32c-14.89-8.6-23.26-19.34-27.65-26.84-9.61-16.38-11.28-28.07-11.23-46.56l1.32-464.71c0-18.49,1.78-28.22,11.45-33.47,4.43-2.4,12.83-3.46,27.71,5.13L1804.33,167A75.34,75.34,0,0,1,1832,193.82Zm.4,505.78,1.32-464.71c0-18-1.68-25.65-8.39-37.09-3.14-5.35-9.33-13.14-21-19.89L1639.54,82.79c-11.67-6.74-17.89-6.11-21-4.4-6.75,3.67-8.51,9.28-8.57,27.31l-1.31,464.71c0,18,1.67,25.65,8.38,37.08,3.14,5.36,9.34,13.15,21,19.9l164.78,95.13c11.65,6.73,17.86,6.1,21,4.38,6.76-3.66,8.52-9.27,8.57-27.3"/><path class="cls-37" d="M1825.32,197.8c6.7,11.44,8.43,19.07,8.38,37.09l-1.32,464.71c-.05,18-1.81,23.64-8.56,27.3-3.16,1.72-9.38,2.35-21-4.38L1638,627.39c-11.68-6.75-17.88-14.54-21-19.9-6.71-11.43-8.43-19-8.38-37.08l1.31-464.71c.06-18,1.82-23.64,8.57-27.31,3.16-1.71,9.38-2.34,21,4.4l164.75,95.12C1816,184.66,1822.18,192.46,1825.32,197.8Zm-103.44-53.48c2.11,1.21,3.81.24,3.82-2.15a8.35,8.35,0,0,0-3.79-6.55c-2.1-1.21-3.81-.25-3.81,2.16a8.33,8.33,0,0,0,3.78,6.54"/><path class="cls-38" d="M1833.4,193c10.25,17.46,11.88,30,11.83,48.56l-1.32,464.71c-.05,18.58-1.75,29.17-12.06,34.77-9.9,5.37-24.12-2.39-29-5.24L1638,640.63c-5-2.9-19.24-11.55-29.08-28.31-10.24-17.47-11.88-30-11.83-48.57L1598.39,99c.06-18.58,1.76-29.17,12.07-34.77,10-5.41,24.28,2.49,29.13,5.29l164.74,95.11C1809.19,167.47,1823.51,176.12,1833.4,193Zm8.49,512.11,1.32-464.71c0-18.5-1.62-30.18-11.23-46.57A75.34,75.34,0,0,0,1804.33,167L1639.57,71.87c-14.87-8.59-23.27-7.54-27.7-5.13-9.67,5.25-11.4,15-11.45,33.47l-1.32,464.71c0,18.49,1.62,30.18,11.22,46.56,4.4,7.5,12.77,18.24,27.66,26.84l164.77,95.13c14.86,8.58,23.26,7.51,27.69,5.11,9.67-5.25,11.4-15,11.45-33.46"/><ellipse class="cls-39" cx="1672.95" cy="266.33" rx="27.22" ry="47.15" transform="translate(94.81 882.1) rotate(-30.36)"/><path class="cls-14" d="M1673,323.36v76.72c-18.48-10.67-33.46-36.49-33.46-57.68S1654.47,312.69,1673,323.36Z"/><path class="cls-16" d="M1673,422.48V499.2c-18.48-10.67-33.46-36.49-33.46-57.68S1654.47,411.81,1673,422.48Z"/><polygon class="cls-40" points="1796.7 310.64 1720.64 266.73 1720.64 262.08 1796.7 305.99 1796.7 310.64"/><polygon class="cls-40" points="1796.7 323.12 1720.64 279.2 1720.64 274.55 1796.7 318.47 1796.7 323.12"/><polygon class="cls-40" points="1796.7 335.6 1720.64 291.68 1720.64 287.03 1796.7 330.94 1796.7 335.6"/><polygon class="cls-40" points="1796.7 348.07 1720.64 304.16 1720.64 299.51 1796.7 343.42 1796.7 348.07"/><polygon class="cls-40" points="1755.2 336.58 1720.64 316.63 1720.64 311.98 1755.2 331.94 1755.2 336.58"/><polygon class="cls-40" points="1796.7 409.77 1720.64 365.86 1720.64 361.21 1796.7 405.12 1796.7 409.77"/><polygon class="cls-40" points="1796.7 422.25 1720.64 378.33 1720.64 373.68 1796.7 417.6 1796.7 422.25"/><polygon class="cls-40" points="1796.7 434.73 1720.64 390.81 1720.64 386.16 1796.7 430.07 1796.7 434.73"/><polygon class="cls-40" points="1796.7 447.2 1720.64 403.29 1720.64 398.63 1796.7 442.55 1796.7 447.2"/><polygon class="cls-40" points="1755.2 435.71 1720.64 415.76 1720.64 411.11 1755.2 431.06 1755.2 435.71"/><polygon class="cls-40" points="1796.7 508.9 1720.64 464.99 1720.64 460.34 1796.7 504.25 1796.7 508.9"/><polygon class="cls-40" points="1796.7 521.38 1720.64 477.46 1720.64 472.81 1796.7 516.73 1796.7 521.38"/><polygon class="cls-40" points="1796.7 533.86 1720.64 489.94 1720.64 485.29 1796.7 529.21 1796.7 533.86"/><polygon class="cls-40" points="1796.7 546.33 1720.64 502.42 1720.64 497.76 1796.7 541.68 1796.7 546.33"/><polygon class="cls-40" points="1755.2 534.85 1720.64 514.89 1720.64 510.24 1755.2 530.19 1755.2 534.85"/><ellipse class="cls-41" cx="1656.22" cy="857.05" rx="52.35" ry="107.98" transform="translate(189.63 2008.87) rotate(-65.51)"/><path class="cls-42" d="M1729.38,550.34c.12-.35,1.11-7.15,1.11-7.15l5.27-8.78,3.51-11.82v-4.1c-.29-1.57-1-2.45-2.57-2.1l.28-.8c.59-3-1.54-4.12-3.79-2.36.46-2.93-2-4.1-3.81-2l-3.68,5.91.87-6.91,1.58-8.36c.47-2.46-1.81-3.46-3-.94l-3,10.22c-.93-.56-1.75.49-2.16,2.33a53.13,53.13,0,0,1-1,5.24c-.57,2-2.22,4.48-2.69,7.2S1717.3,538,1717.3,538l-1.09,9.54C1716.92,550.18,1727.7,552.81,1729.38,550.34Z"/><path d="M1623.94,809.37c11.25,2.34,13.06,11.1,8.77,18.71L1620,846c-4.75,8.26-11.14,12.14-19.5,10.75-7.5-3.1-8.52-8-6.43-13.87l3.12-9.55,4.87-25.93Z"/><path class="cls-43" d="M1595.09,832.24c3.5,11.93,26.55,11.51,28.07-4.45l6.28-45.63s1.32-9.64,1.32-9.64l12.74-52.85,2.76-11.48-8.48-4.89-33.63-19.39c-1.84,8.43-3,20.1-3.58,34.24-.5,11.71-.64,25.1-.51,39.75C1593.46,778.78,1593.58,805,1595.09,832.24Z"/><path d="M1669.66,861.71c-4.09,7.95-1.21,20.62,1.82,26.26,8.11,2.5,14.79,2.68,19.21-.76,14.94-1.81,23.44-.32,31-3,8.06-2.83,13.5-5.64,17.2-14.08,1.4-3.76-1.24-10.48-8-11.09-12.48.25-23.72-.09-30-2.77l-11.82-18.78-18.38,16.39Z"/><path class="cls-43" d="M1630.76,683.91c2.39,6.53,4.75,13,7,19.39,2,5.55,3.9,11,5.72,16.37,3.87,11.34,7.35,22.13,10.15,32a231.53,231.53,0,0,1,6.06,26.08c-1.62,31.45,1.91,61.28,8.73,90.08,10.57,11.11,35,1.17,34.6-10.81l-4.4-55.87-1.79-22.81c-2.25-29.52-6.21-56.69-12.86-80.13Z"/><path class="cls-44" d="M1600.57,718.15l25.51,18.31s3.47,43.79,3.36,45.66l1.32-9.6,12.74-52.85c3.87,11.34,7.35,22.13,10.15,32l27,10.53,18,38.95-1.79-22.81c-2.25-29.52-6.21-56.69-12.86-80.13l-53.23-14.33c2.39,6.53,4.75,13,7,19.39l-33.63-19.39Z"/><path class="cls-42" d="M1590,656.88v27l4.22,12,4.84,5,13.94-7.73,1.81-24.17-10.58-12.12Z"/><path class="cls-43" d="M1575.59,613.24c.76,20.14,4,37.74,9.94,52.45,3.24,3.19,6.07,4.78,8.62,5.25,3.87.69,7.1-1.22,10.09-4.08l-3.94-47.7-.15-1.83,8.59-22.41c-.76-22-2.52-42-19.12-31.2C1580.59,575.57,1577.07,593.32,1575.59,613.24Z"/><path class="cls-44" d="M1587.72,634.78l6.43,36.16c3.87.69,7.1-1.22,10.09-4.08l-3.94-47.7-12.58-33.8C1588.11,604,1585.66,623.13,1587.72,634.78Z"/><path class="cls-43" d="M1598.67,649.81c.23,18.3-3.28,42.57-3.28,42.57,2.19,16.28,31.8,29.78,58.89,31.14a78.33,78.33,0,0,0,13.16-.4c7.83-.9,14.92-3,20.46-6.83.36-.23.7-.5,1.06-.73a14.07,14.07,0,0,0,5-15.39c-4-13.26-12-41.81-11.17-58.09.43-8.29.79-15.72.83-22.45a96,96,0,0,0-.77-13.92c-1.16-8.23-3.71-14.93-9-20.36,0,0-2.16-1.36-5.44-3.49-7-4.57-19.13-12.76-26.06-19-20-7.39-32.06-5.17-46.22-2,0,0-9.62,3.45-8.39,29.91C1588.49,604.74,1598.47,631.5,1598.67,649.81Z"/><path class="cls-42" d="M1647.69,560.29l10.06-7.21c4.62-3,5.67-12.35,5.82-19.17l.3-14.3-3.21-8.79-33.19,1.2L1621,534.84l5.91,21.6Z"/><path class="cls-42" d="M1652.58,570.38l-1.73-18.31-21.56-6-8.75,11.72C1627.25,566.85,1638.85,569.92,1652.58,570.38Z"/><path class="cls-45" d="M1660.83,578l-6.83-9.4c-14.37-.95-28.7-7.47-31.6-13.11l-7.57,3.5,16,13.9Z"/><path d="M1663.82,522l-7.88,7.55a7.16,7.16,0,0,0-2.2,4.65l-.53,7.12-4.34,4,.42,7.15s-7.21,9.65-20.62,4.83c-9.33-3.36-7.89-5.05-10.94-21.31-1.91-10.24-2.12-20.31,7.5-28.38,8.76-7.34,27.66-7.12,35-.34C1664.07,510.71,1666.85,517.3,1663.82,522Z"/><path class="cls-46" d="M1647.3,540.08a9.47,9.47,0,0,0-.87,4.89,7.25,7.25,0,0,0,1.27,4.33c1,1.19,2.86,1.74,4.07.8,1.71-1.32,2.92-7.77,2.43-9.91C1653.38,536.59,1648.81,537.29,1647.3,540.08Z"/><path class="cls-44" d="M1652.59,608.39c.13.27.26.5.39.76q2.6,5,4.75,10c7.49,17,11,33.29,9.18,48.58,4.21,20.72,5.44,39.82.53,55.44,7.83-.9,14.92-3,20.46-6.83.36-.23.7-.5,1.06-.73a14.07,14.07,0,0,0,5-15.39c-4-13.26-12-41.81-11.17-58.09.43-8.29.79-15.72.83-22.45,10.64-.69,19.69-1.62,26.89-3.58l.26-12.83-27.92,2.49-30,2.65Z"/><path class="cls-43" d="M1652.85,608.36c0,.26.07.53.13.79.57,4.25,2.13,7.9,4.75,10a8.32,8.32,0,0,0,6.23,1.69c7.06-.4,13.63-.76,19.7-1.16,10.64-.69,19.69-1.62,26.89-3.58a33.82,33.82,0,0,0,11.57-5.17c9.25-12.54,11.84-35.55,15.48-60.55-2.88-4.28-23.14-10-25.2-6.17L1703.48,582l-34.51-.2a2.48,2.48,0,0,0-.47,0C1657,582.69,1651.63,597.28,1652.85,608.36Z"/><path class="cls-47" d="M1671.86,581.88s-30.79,2.69-50.69-8.64c-10.08-5.75-10.73-11.93-10.73-11.93-.59-2.76,4.39-5.26,9-4.5,3.06,11.06,27.75,15.61,38.43,17.07Z"/></g></g></svg>